<svg id="Foreground" xmlns="http://www.w3.org/2000/svg" viewBox="0 0 27.5 27.5" width="27.5" height="27.5"><defs><style>.cls-1,.cls-2{fill:#ffffff;}.cls-3{fill:#ffffff;}.cls-2{fill-rule:evenodd;}</style></defs><path class="cls-2" d="M26.842 0.47c0.047 7.184 -0.825 13.993 -1.078 21.056a74.754 74.754 0 0 1 -6.724 0.807c-0.253 1.36 -0.188 2.842 -0.675 4.108 -0.591 0.188 -1.51 0.553 -2.017 -0.066 0.038 -2.485 0.703 -4.914 0.337 -7.399 1.904 -0.506 4.051 -0.441 5.984 -0.872l0.131 -0.131c-0.215 -5.092 0.61 -9.753 0.807 -14.669 -3.77 -0.122 -7.447 -0.619 -11.301 -0.337a125.902 125.902 0 0 1 -8.675 0.404c-0.872 4.999 -0.535 10.58 -0.807 15.747l0.206 0.206c1.697 0.047 3.452 0.188 5.111 0.131 0.553 0.535 0.084 1.426 0.131 2.157 -0.441 1.866 -0.47 3.92 -1.078 5.721 -0.319 0.215 -0.845 0.15 -1.21 0.066l-0.47 -0.337 0.404 -4.37 -5.384 -0.131c-0.366 -0.066 -0.45 -0.357 -0.535 -0.675C0.721 15.327 0.824 8.463 0.936 1.756 1.058 1.306 0.955 0.78 1.273 0.414L22.134 0.131c1.464 -0.15 3.048 0.018 4.511 -0.131l0.206 0.47Z"/><path class="cls-2" d="M19.911 4.595c0.122 1.378 0.422 3.161 -0.271 4.37 -0.657 -0.066 -1.426 0.169 -1.95 -0.206 -0.215 -1.256 -0.15 -2.729 -0.066 -4.033 0.525 -0.441 1.294 -0.271 1.95 -0.404z"/><path class="cls-2" d="m14.669 5.196 -0.47 3.902c-0.61 0.319 -1.342 0.525 -2.083 0.337 -0.694 -0.61 -0.084 -1.613 -0.271 -2.485 0.3 -0.723 -0.404 -2.035 0.61 -2.289 0.741 0.188 1.801 -0.15 2.223 0.535Z"/><path class="cls-2" d="M9.285 5.675c-0.15 1.378 0.084 3.077 -0.47 4.37 -0.741 -0.084 -1.697 0.215 -2.223 -0.271l0.337 -3.967c0.488 -0.591 1.426 -0.282 2.083 -0.271l0.271 0.131Z"/><path class="cls-2" d="M19.78 11.592c0.169 1.378 0.038 2.804 -0.404 4.033 -0.488 0.384 -1.247 0.084 -1.819 0.271 -0.271 -0.215 -0.337 -0.723 -0.206 -1.078l0.131 -3.367c0.591 -0.384 1.988 -0.657 2.289 0.131Z"/><path class="cls-2" d="M14.199 12.062c-0.122 1.548 -0.553 2.964 -0.675 4.511 -0.45 0.215 -1.041 0.506 -1.548 0.206l-0.206 -0.404c0.188 -1.398 0.188 -2.879 0.271 -4.304 0.253 -0.357 0.637 -0.422 1.012 -0.47 0.319 0.122 0.956 -0.018 1.144 0.47Z"/><path class="cls-2" d="M8.61 12.934a11.541 11.541 0 0 1 -0.404 3.77c-0.553 0.591 -1.464 0.506 -2.223 0.404 -0.066 -1.416 0.366 -2.795 0.404 -4.239 0.61 -0.422 1.398 -0.047 2.083 -0.066l0.131 0.131Z"/><path class="cls-2" d="M13.524 19.864c0.047 2.138 -0.591 4.005 -0.741 6.059 -0.384 0.525 -1.041 0.694 -1.753 0.61 -0.271 -0.384 -0.337 -0.938 -0.197 -1.416 0.525 -1.717 0.047 -3.854 0.675 -5.515 0.591 -0.319 1.67 -0.319 2.017 0.271Z"/></svg>