<?xml version="1.0" encoding="utf-8"?>
<!-- Generator: Adobe Illustrator 24.0.1, SVG Export Plug-In . SVG Version: 6.00 Build 0)  -->
<svg version="1.1" id="Layer_1" xmlns="http://www.w3.org/2000/svg" xmlns:xlink="http://www.w3.org/1999/xlink" x="0px" y="0px"
	 viewBox="0 0 342.5 342.5" style="enable-background:new 0 0 342.5 342.5;" xml:space="preserve">
<style type="text/css">
	.st0{fill:#FFFFFF;}
</style>
<g>
	<g>
		<g>
			<g>
				<path class="st0" d="M0,0v342.5h342.5V0H0z M34.3,154.1c0-31.4,13.1-33.5,21.6-32c18.7,3.3,29.3,5.5,47.8,10
					c18.4,4.5,28.7,7.4,46.7,13.1c5.6,1.9,10.6,3.4,10.6,8.9s-5,6.9-10.6,8.9c-18,5.7-28.3,8.6-46.7,13.1c-18.5,4.5-29,6.7-47.8,10
					C47.3,187.6,34.3,185.5,34.3,154.1z M117.3,270.4c-5,7.2-15.8,14.8-37.9-7.3c-22.1-22.1-14.5-32.9-7.3-37.9
					c15.6-10.9,24.5-16.9,40.8-26.7c16.2-9.8,25.5-15.1,42.3-23.7c5.3-2.6,9.8-5,13.7-1.2c3.9,3.9,1.3,8.4-1.2,13.7
					c-8.6,16.8-13.9,26.1-23.7,42.3C134.2,245.9,128.2,254.9,117.3,270.4z M188.4,308.2c-31.4,0-33.5-13.1-32-21.6
					c3.3-18.7,5.5-29.3,10-47.8c4.5-18.4,7.4-28.7,13.1-46.7c1.9-5.6,3.4-10.6,8.9-10.6c5.5,0,6.9,5,8.9,10.6
					c5.7,18,8.6,28.3,13.1,46.7c4.5,18.5,6.7,29,10,47.8C221.8,295.2,219.6,308.2,188.4,308.2z"/>
			</g>
		</g>
	</g>
</g>
</svg>
