<?xml version="1.0" encoding="UTF-8"?>
<svg id="Layer_1" data-name="Layer 1" xmlns="http://www.w3.org/2000/svg" viewBox="0 0 96.16 196.16" width="20" height="40">
  <defs>
    <style>
      .cls-1 {
        fill: #fff;
        stroke-width: 0px;
      }
    </style>
  </defs>
  <path class="cls-1" d="M21.54,186.67c11.9,0,21.54-9.64,21.54-21.54s-9.64-21.54-21.54-21.54S0,153.24,0,165.13s9.64,21.54,21.54,21.54"/>
  <path class="cls-1" d="M69.4,186.67c11.9,0,21.54-9.64,21.54-21.54s-9.64-21.54-21.54-21.54-21.54,9.64-21.54,21.54,9.64,21.54,21.54,21.54"/>
  <path class="cls-1" d="M21.54,138.81c11.9,0,21.54-9.64,21.54-21.54s-9.64-21.54-21.54-21.54S0,105.37,0,117.27s9.64,21.54,21.54,21.54"/>
  <path class="cls-1" d="M69.4,138.81c11.9,0,21.54-9.64,21.54-21.54s-9.64-21.54-21.54-21.54-21.54,9.64-21.54,21.54,9.64,21.54,21.54,21.54"/>
  <path class="cls-1" d="M21.54,90.94c11.9,0,21.54-9.64,21.54-21.54s-9.64-21.54-21.54-21.54S0,57.51,0,69.4s9.64,21.54,21.54,21.54"/>
  <path class="cls-1" d="M69.4,90.94c11.9,0,21.54-9.64,21.54-21.54s-9.64-21.54-21.54-21.54-21.54,9.64-21.54,21.54,9.64,21.54,21.54,21.54"/>
  <path class="cls-1" d="M21.54,43.08c11.9,0,21.54-9.64,21.54-21.54S33.43,0,21.54,0,0,9.64,0,21.54s9.64,21.54,21.54,21.54"/>
  <path class="cls-1" d="M69.4,43.08c11.9,0,21.54-9.64,21.54-21.54S81.3,0,69.4,0s-21.54,9.64-21.54,21.54,9.64,21.54,21.54,21.54"/>
</svg>